{"title":"DEATH A Love Story.2015.Screener.RR.mp4","uid":14560405,"size":900196452,"categoryP":"video","categoryS":"movies","magnet":"?xt=urn:btih:4fef8dba9be578217feffca09dc3764cc498a9c7&amp;dn=DEATH+A+Love+Story.2015.Screener.RR.mp4&amp;tr=udp%3A%2F%2Ftracker.leechers-paradise.org%3A6969&amp;tr=udp%3A%2F%2Fzer0day.ch%3A1337&amp;tr=udp%3A%2F%2Fopen.demonii.com%3A1337&amp;tr=udp%3A%2F%2Ftracker.coppersurfer.tk%3A6969&amp;tr=udp%3A%2F%2Fexodus.desync.com%3A6969","seeders":0,"leechers":1,"uploader":"RadioResearch","files":1,"time":1462735583,"description":"A psychotic clown hosts an anthology of loathsome tales with an uncommon theme....... Love.\r\n\r\nEnjoy, and support Indie horror!\r\n\r\nRR\r\n\r\nScreencaps\r\n \nhttp://i.imgur.com/WJKOUJt.jpg\r\n\r\nVideo\r\nID                                       : 1\r\nFormat                                   : AVC\r\nFormat/Info                              : Advanced Video Codec\r\nFormat profile                           :   \r\nFormat settings, CABAC                   : Yes\r\nFormat settings, ReFrames                : 1 frame\r\nCodec ID                                 : avc1\r\nCodec ID/Info                            : Advanced Video Coding\r\nDuration                                 : 1h 17mn\r\nBit rate                                 : 1 356 Kbps\r\nMaximum bit rate                         : 16.4 Mbps\r\nWidth                                    : 1 280 pixels\r\nHeight                                   : 720 pixels\r\nDisplay aspect ratio                     : 16:9\r\nFrame rate mode                          : Constant\r\nFrame rate                               : 23.976 (24000/1001) fps\r\nColor space                              : YUV\r\nChroma subsampling                       : 4:2:0\r\nBit depth                                : 8 bits\r\nScan type                                : Progressive\r\nBits/(Pixel*Frame)                       : 0.061\r\nStream size                              : 751 MiB (87%)\r\nTagged date                              : UTC 2015-08-21 00:42:16\r\n\r\nAudio\r\nID                                       : 2\r\nFormat                                   : AAC\r\nFormat/Info                              : Advanced Audio Codec\r\nFormat profile                           : LC\r\nCodec ID                                 : 40\r\nDuration                                 : 1h 17mn\r\nBit rate mode                            : Variable\r\nBit rate                                 : 192 Kbps\r\nMaximum bit rate                         : 202 Kbps\r\nChannel(s)                               : 2 channels\r\nChannel positions                        : Front: L R\r\nSampling rate                            : 44.1 KHz\r\nFrame rate                               : 43.066 fps (1024 spf)\r\nCompression mode                         : Lossy\r\nStream size                              : 106 MiB (12%)\r\nTitle                                    : IsoMedia File Produced by Google, 5-11-2011\r\nEncoded date                             : UTC 2015-08-21 00:41:33\r\nTagged date                              : UTC 2015-08-21 00:42:16","torrent":{"xt":"urn:btih:4fef8dba9be578217feffca09dc3764cc498a9c7","amp;dn":"DEATH+A+Love+Story.2015.Screener.RR.mp4","amp;tr":["udp%3A%2F%2Ftracker.leechers-paradise.org%3A6969","udp%3A%2F%2Fzer0day.ch%3A1337","udp%3A%2F%2Fopen.demonii.com%3A1337","udp%3A%2F%2Ftracker.coppersurfer.tk%3A6969","udp%3A%2F%2Fexodus.desync.com%3A6969"],"infoHash":"4fef8dba9be578217feffca09dc3764cc498a9c7","infoHashBuffer":{"type":"Buffer","data":[79,239,141,186,155,229,120,33,127,239,252,160,157,195,118,76,196,152,169,199]},"announce":[],"urlList":[]}}